<?xml version="1.0" encoding="UTF-8" standalone="no"?>
<svg width="30px" height="30px" viewBox="0 0 30 30" version="1.1" xmlns="http://www.w3.org/2000/svg" xmlns:xlink="http://www.w3.org/1999/xlink" xmlns:sketch="http://www.bohemiancoding.com/sketch/ns">
    <!-- Generator: Sketch 3.4 (15575) - http://www.bohemiancoding.com/sketch -->
    <title>Forest</title>
    <desc>Created with Sketch.</desc>
    <defs>
        <linearGradient x1="50%" y1="0%" x2="50%" y2="100%" id="linearGradient-1">
            <stop stop-color="#598804" offset="0%"></stop>
            <stop stop-color="#3D6101" offset="100%"></stop>
        </linearGradient>
    </defs>
    <g id="Page-1" stroke="none" stroke-width="1" fill="none" fill-rule="evenodd" sketch:type="MSPage">
        <g id="Forest" sketch:type="MSLayerGroup">
            <path d="M13.3923339,16.2287598 C13.1101073,18.8190918 15.2616638,21.9720745 17,22.2441406 C18.1164563,22.4188766 18.6696108,21.44636 19.4016112,21.4379883 C20.713063,21.4229895 21.8506589,22.2441406 22.5126954,22.2441406 C23.8663256,22.2441406 27.311523,21.541748 28.5375972,17.9611816 C29.7636715,14.3806152 27.203857,13.3397453 27.203857,12.6776123 C27.203857,11.7157935 28.0844722,10.6379395 27.203857,8.94726562 C26.4142478,7.43131217 25.5283199,8.43286133 23.5107423,7.78442382 C21.4931646,7.13598632 21.0752123,6.35522461 20.1166992,6.35522461 C16.8781738,6.35522461 13.6821289,9.67977702 13.6821289,11.888916 C13.6821289,12.3445292 13.6745606,13.6384277 13.3923339,16.2287598 Z" id="Tree2" stroke="#345800" fill="#598901" sketch:type="MSShapeGroup"></path>
            <path d="M1.52563477,11.1328124 C1.52563479,12.9770749 2.48462234,13.7087401 3.81274414,13.7087401 C4.79473714,13.7087401 7.35130957,18.4692104 10.1269531,17.6298827 C11.7380806,17.1426934 11.3330078,16.486328 13.4807129,14.9614257 C15.628418,13.4365233 17.1980475,9.30310207 17.1118164,8.73046866 C16.758209,6.38227402 14.7819897,6.5822352 14.0441895,5.73046866 C13.3063892,4.87870212 14.4042969,4.55395499 12.9423828,3.9169921 C11.7200528,3.38441711 10.8000048,2.51551655 9.81352199,1.91637471 C9.17798227,1.5303787 8.5148684,1.25634757 7.72558594,1.25634757 C5.71118164,1.25634757 5.71118164,2.9355469 5.71118164,2.9355469 C5.71118164,2.9355469 4.05103874,3.2225069 3.81274414,3.44482422 C3.46112387,3.7728689 3.50097656,4.36621085 2.7121582,4.92260733 C1.92333984,5.47900382 1,6.23127742 1,7.5 C1,8.27089005 1.52563474,9.42944327 1.52563477,11.1328124 Z" id="Tree" stroke="#254800" fill="url(#linearGradient-1)" sketch:type="MSShapeGroup"></path>
            <path d="M2.83081055,8.28344727 C3.40688411,9.09974002 4.60062407,7.66455078 5.96777334,7.66455078 C6.5147743,7.66455078 6.81005874,6.74926758 8.95776382,7.66455078 C11.1054689,8.57983398 13.3974611,8.36866967 13.3974611,7.66455078 C13.3974611,6.5 12.0715333,6.5 11.6679689,5.51416016 C11.3665215,4.77777504 10.6547789,4.79036944 9.74243178,4.59790039 C8.97524688,4.43605481 8.6615283,3.5234375 7.7785646,3.5234375 C6.65692748,3.5234375 6.20840411,4.55303577 5.56787109,5.13916016 C5.10452823,5.56314541 3.42675783,5.9204575 3.42675783,6.5 C3.42675783,6.90417668 2.59238033,7.94559309 2.83081055,8.28344727 Z" id="Tree-highlight" fill="#8EB606" sketch:type="MSShapeGroup"></path>
            <path d="M14.5727048,13.4322854 C15.1487784,14.2485781 16.3425184,12.8133889 17.7096676,12.8133889 C18.2566686,12.8133889 19.3199851,12.788825 21.4676902,13.7041082 C23.6153953,14.6193914 25.7365901,13.0845189 25.7365901,12.3804 C25.7365901,11.2158492 22.5036799,11.0027412 22.1001155,10.0169014 C21.7986681,9.28051626 20.528517,8.34585476 19.6455533,8.34585476 C18.5239162,8.34585476 17.9502984,9.7018739 17.3097654,10.2879983 C16.8464225,10.7119835 15.0702641,11.3243361 14.5727048,11.8476269 C14.0661294,12.3804002 14.3342746,13.0944312 14.5727048,13.4322854 Z" id="Tree-highlight-Copy" fill="#8EB606" sketch:type="MSShapeGroup" transform="translate(20.010692, 11.166615) rotate(-21.000000) translate(-20.010692, -11.166615) "></path>
            <path d="M3.02184882,21.3808796 C4.91416083,21.0501643 5.73156562,21.6015826 6.77795234,20.9455768 C5.93176093,20.2641803 4.70191495,20.6266304 3.71398749,20.5525104 C2.88833474,20.4905651 5.30613347,17.8745177 6.29650703,16.9743855 C7.70176997,15.6971679 9.02356251,17.9419823 9.87821318,19.4172938 C10.2489768,20.0573119 6.63464179,15.1657983 10.6954328,15.0039264 C14.7562238,14.8420546 11.5155005,19.7445803 12.2155939,18.7293282 C12.9657696,17.6414485 13.821061,16.3155236 14.4056379,15.4904986 C15.798216,16.8086139 17.0941792,18.8542764 17.7872297,19.8965046 C16.0609113,21.9487507 14.4056379,21.925069 14.4056379,21.925069 L17.0394269,24.6037771 C17.0394269,24.6037771 14.6849348,27.5632526 13.7279035,28.5151569 C12.7708723,29.4670612 11.5616437,25.4353229 10.6954328,24.98586 C10.3250715,25.748067 12.1417219,30.6325885 6.77795234,28.0725299 C1.41418281,25.5124714 6.97627591,23.925069 6.29650703,23.925069 L2.7879621,23.925069 C2.7879621,23.925069 3.20300117,22.9594928 3.02184882,21.3808796 Z" id="Rectangle-17" stroke="#094F00" fill="#0A6D2C" sketch:type="MSShapeGroup"></path>
            <path d="M6.82043613,20.4482664 C6.82043613,20.4482664 9.06677402,21.2866341 9.06677402,20.8657357 C9.06677402,20.4448373 6.70216739,18.7178333 7.12453277,18.2805325 C7.34471209,18.0525674 8.80371452,16.3588876 8.80371452,16.3588876 L10.8204361,19.0500619 C10.8204361,19.0500619 11.8792665,17.998304 12.1507584,17.998304 C12.8031143,17.998304 13.6807877,19.050062 13.6807877,19.050062 L13.3067643,20.4482664 L14.8204361,20.4482664 L14.8204361,23.4482664 C14.8204361,23.4482664 13.4109309,23.4482664 12.7061783,23.4482664 C12.2297433,23.4482664 12.8055642,25.0279988 13.0066992,26.1840505 C12.7594208,26.4102889 10.508889,26.2481669 9.94022096,26.1840505 C9.86033128,24.7769781 9.95227207,23.4482664 9.50305332,23.4482664 L6.82043613,23.4482664 L6.82043613,20.4482664 Z" id="Rectangle-16" stroke="#00601F" fill="#1BAB5C" sketch:type="MSShapeGroup" transform="translate(10.820436, 21.329653) rotate(6.000000) translate(-10.820436, -21.329653) "></path>
            <path d="M6.5,13 C7.32842712,13 8.5144043,11.9741597 8.5144043,11.421875 C8.5144043,11.1056869 9.49926182,9.88442149 8.5144043,10.0922851 C8.2969844,10.1381737 7.54792364,11.277473 7.03125,11.421875 C5.80035274,11.765891 4.45898438,11.2555809 4.45898438,11.421875 C4.45898438,11.9741598 5.67157288,13 6.5,13 Z" id="Oval-17" opacity="0.620802239" fill="#8EB606" sketch:type="MSShapeGroup" transform="translate(6.705552, 11.534311) rotate(66.000000) translate(-6.705552, -11.534311) "></path>
            <path d="M24,19 C25.1045695,19 26.5463868,18.1690226 26.5463868,17.0644531 C26.5463868,15.9598836 25.8591096,14.6130371 24.7545401,14.6130371 C23.6499706,14.6130371 24,15.5909871 24,16.6955566 C24,17.8001261 22.8954305,19 24,19 Z" id="Oval-18" fill="#739B04" sketch:type="MSShapeGroup"></path>
        </g>
    </g>
</svg>