<?xml version="1.0" encoding="UTF-8" standalone="no"?>
<svg width="30px" height="30px" viewBox="0 0 30 30" version="1.1" xmlns="http://www.w3.org/2000/svg" xmlns:xlink="http://www.w3.org/1999/xlink" xmlns:sketch="http://www.bohemiancoding.com/sketch/ns">
    <!-- Generator: Sketch 3.3.3 (12072) - http://www.bohemiancoding.com/sketch -->
    <title>Rifleman</title>
    <desc>Created with Sketch.</desc>
    <defs></defs>
    <g id="Page-1" stroke="none" stroke-width="1" fill="none" fill-rule="evenodd" sketch:type="MSPage">
        <g id="Rifleman" sketch:type="MSLayerGroup">
            <g id="Soldier" transform="translate(10.025000, 7.065000)" sketch:type="MSShapeGroup">
                <path d="M6.61177253,5.16306899 C7.09485429,5.15386655 6.92867916,6.46835754 6.92867918,6.89248794 C6.92867928,8.94198349 2.6479783,8.68760508 2.99709939,10.3530627 C3.29760508,11.786604 8.6232552,9.87312475 9.59685541,9.16134719 C10.5704556,8.44956964 10.2419006,9.02237723 10.2419006,9.02237723 C11.0345275,9.75729447 11.6770786,11.2490597 11.6770786,12.3506577 L11.6770786,12.6797643 C11.6770786,13.7830056 10.8410808,14.9834858 9.77646121,15.3172865 C9.77646121,15.3172865 2.78127918,18.3217603 0.49850336,13.7406567 C-1.49890595,9.73223021 3.23046472,5.22748105 6.61177253,5.16306899 Z" id="Body" stroke="{{strokeTeamColor}}" fill="{{teamColor}}"></path>
                <ellipse id="Left-Hand" stroke="#98837D" fill="#F8D6CD" cx="7.69404776" cy="6.56320326" rx="0.975" ry="0.975"></ellipse>
                <ellipse id="Right-Hand" stroke="#98837D" fill="#F8D6CD" cx="9.64404776" cy="8.51320326" rx="0.975" ry="0.975"></ellipse>
                <path d="M8.00278189,3.65446913 C8.00278189,3.65446913 8.49412908,3.00446913 8.98034668,3.00446913 C9.46656428,3.00446913 9.95278189,3.65446913 9.95278189,3.65446913 L9.95278189,12.7493469 L8.00278189,12.7493469 L8.00278189,3.65446913 Z" id="Rifle" stroke="#5C432C" fill="#A57A53"></path>
                <path d="M8.99404776,7.21320326 L8.99404776,0.500830147" id="Line" stroke="#444444" stroke-linecap="square"></path>
                <path d="M5.16423864,16.1725586 C7.13599078,16.1725586 8.73441166,14.7798027 8.73441166,12.6432797 C8.73441166,11.0047624 7.79430292,9.92845701 6.4666694,9.5157249 C6.30537943,9.46558339 6.13836996,9.42523558 5.9666318,9.39486324 C5.70871397,9.34924978 5.44013089,9.32613525 5.16423864,9.32613525 C3.1924865,9.32613525 2.4336914,10.5067567 2.4336914,12.6432796 C2.4336914,14.7798026 3.1924865,16.1725586 5.16423864,16.1725586 Z" id="Helmet" stroke="#C60216" fill="#FF404B"></path>
                <path d="M4.40803591,10.3469567 C4.93683923,10.205151 5.28357106,9.82292821 5.18248311,9.49323814 C5.08139517,9.16354807 4.57076741,9.01123766 4.04196409,9.15304332 C3.51316077,9.29484898 3.16642894,9.67707179 3.26751689,10.0067619 C3.36860483,10.3364519 3.87923259,10.4887623 4.40803591,10.3469567 L4.40803591,10.3469567 Z" id="Embleem" stroke="#847741" fill="#DCBD3C"></path>
            </g>
        </g>
    </g>
</svg>