<?xml version="1.0" encoding="UTF-8" standalone="no"?>
<svg width="30px" height="30px" viewBox="0 0 30 30" version="1.1" xmlns="http://www.w3.org/2000/svg" xmlns:xlink="http://www.w3.org/1999/xlink" xmlns:sketch="http://www.bohemiancoding.com/sketch/ns">
    <!-- Generator: Sketch 3.3.3 (12072) - http://www.bohemiancoding.com/sketch -->
    <title>Tank</title>
    <desc>Created with Sketch.</desc>
    <defs></defs>
    <g id="Page-1" stroke="none" stroke-width="1" fill="none" fill-rule="evenodd" sketch:type="MSPage">
        <g id="Tank" sketch:type="MSLayerGroup">
            <rect id="Tank-tracks" stroke="#4E4E4E" sketch:type="MSShapeGroup" x="5" y="8" width="20" height="21"></rect>
            <path d="M6,7.13636364 C6,7.13636364 7.73840332,5 15.1741333,5 C22.6098633,5 24,7.13636364 24,7.13636364 L24,30 L6,30 L6,7.13636364 Z" id="Tank-base" stroke="{{strokeTeamColor}}" fill="{{teamColor}}" sketch:type="MSShapeGroup"></path>
            <path d="M13,1 C13,1 13.1225586,-7.71630634e-16 15.0612793,0 C17,7.71630657e-16 17,1 17,1 L17,13 L13,13 L13,1 Z" id="Rectangle-4" stroke="{{strokeTeamColor}}" fill="{{teamColor}}" sketch:type="MSShapeGroup"></path>
            <path d="M14.9936288,23 C18.1949872,23 20.7902009,20.9313 20.7902009,16.7695341 C20.7902009,12.6077683 18.1949872,9.23399048 14.9936288,9.23399048 C11.7922705,9.23399048 9.19705677,12.6077683 9.19705677,16.7695341 C9.19705677,20.9313 11.7922705,23 14.9936288,23 Z" id="Oval-4" stroke="{{strokeTeamColor}}" fill="{{teamColor}}" sketch:type="MSShapeGroup"></path>
            <circle id="Oval-5" stroke="{{strokeTeamColor}}" fill="{{teamColor}}" sketch:type="MSShapeGroup" cx="17" cy="19" r="2"></circle>
            <path d="M9.5,24.5 L9.5,26.5065918 L20.5429688,26.5065918 L20.5429688,24.5" id="Line" stroke="{{strokeTeamColor}}" stroke-linecap="square" sketch:type="MSShapeGroup"></path>
            <rect id="Backpack-Copy" stroke="#633A00" fill="#955700" sketch:type="MSShapeGroup" transform="translate(15.000000, 26.500000) rotate(90.000000) translate(-15.000000, -26.500000) " x="13" y="22.5" width="4" height="8"></rect>
        </g>
    </g>
</svg>
